<svg width="652" height="789" viewBox="0 0 652 789" fill="none" xmlns="http://www.w3.org/2000/svg">
<g opacity="0.06">
<path d="M293.005 535.713L345.801 621.986L444.993 623.584L491.389 559.678L452.992 473.405L352.201 452.635L293.005 535.713ZM355.4 602.814C344.201 585.24 331.402 566.068 315.404 535.713C329.802 514.944 345.801 492.576 361.8 471.807C388.998 476.6 411.396 479.795 440.193 486.186C449.793 508.553 457.792 529.322 470.591 553.287C457.792 569.264 444.993 586.838 433.794 602.814C404.996 604.412 396.997 604.412 355.4 602.814Z" fill="white"/>
<path d="M355.401 631.57L321.804 698.671L400.197 740.21C400.197 740.21 480.191 719.44 492.99 713.05C497.79 701.866 504.189 689.085 513.788 676.304C491.39 665.12 470.592 647.546 451.393 629.972C436.994 631.57 355.401 631.57 355.401 631.57ZM344.202 695.475C350.601 681.097 358.601 665.12 368.2 649.144C384.199 649.144 398.598 649.144 414.596 647.546C425.795 647.546 435.395 647.546 446.594 645.948C464.192 661.925 473.791 671.511 491.39 681.097C486.59 690.683 481.791 700.268 476.991 709.854C454.593 714.647 432.195 721.038 403.397 725.831C379.399 716.245 366.6 711.452 344.202 695.475Z" fill="white"/>
<path d="M504.191 714.648L412.998 743.406L408.199 776.956C408.199 776.956 459.395 776.956 497.791 765.773L576.185 721.039L579.385 698.672C580.985 698.672 534.588 714.648 504.191 714.648ZM430.597 748.199C451.395 743.406 473.793 737.015 502.591 727.429C524.989 725.832 537.788 725.832 558.587 719.441L556.987 725.832C539.388 737.015 521.789 745.003 494.592 757.785C468.994 764.175 454.595 767.37 427.397 767.37C427.397 760.98 428.997 754.589 430.597 748.199Z" fill="white"/>
<path d="M203.412 746.603C230.61 764.177 259.407 778.556 291.405 788.142C320.203 788.142 349 784.946 377.798 780.153C376.198 765.774 379.398 752.993 384.197 738.614C355.4 727.431 329.802 714.65 305.804 697.076C273.806 697.076 243.409 697.076 211.411 692.283C206.612 709.857 201.812 729.029 203.412 746.603ZM291.405 775.36C270.607 767.372 248.208 759.384 221.011 741.81C221.011 732.224 222.61 721.04 225.81 709.857C246.608 711.454 267.407 713.052 299.404 713.052C317.003 724.236 336.201 737.017 361.799 746.603C360.199 756.189 358.599 764.177 358.599 770.567C337.801 773.763 318.603 775.36 294.605 775.36C293.005 775.36 293.005 775.36 291.405 775.36Z" fill="white"/>
<path d="M134.62 598.021C153.818 628.376 173.017 657.134 197.015 682.696C229.012 685.891 259.41 689.087 291.407 689.087C301.006 665.122 313.805 641.157 326.604 618.79C307.406 591.63 289.807 562.872 273.808 532.517C240.211 529.322 206.614 524.529 173.017 519.736C158.618 545.298 145.819 572.458 134.62 598.021ZM203.414 668.317C187.415 650.743 173.017 631.571 153.818 601.216C161.817 583.642 171.417 562.872 184.216 542.103C208.214 545.298 224.212 548.494 262.609 551.689C275.408 574.056 286.607 594.825 305.806 620.388C294.607 639.56 286.607 657.134 278.608 673.11C254.61 673.11 232.212 671.512 203.414 668.317Z" fill="white"/>
<path d="M134.62 399.91C144.219 433.461 153.818 467.012 166.617 498.965C200.214 503.758 233.812 508.551 265.809 513.344C285.008 484.586 305.806 457.426 326.604 430.266C313.805 398.313 301.006 364.762 289.807 331.212C257.81 326.419 225.812 323.223 193.815 318.43C173.017 345.59 153.818 372.75 134.62 399.91ZM179.416 482.988C171.417 460.621 163.417 438.254 153.818 404.703C168.217 383.934 184.216 361.567 200.214 340.797C227.412 343.993 248.21 347.188 275.408 350.383C281.808 369.555 293.007 396.715 305.806 428.668C288.207 451.035 272.209 473.402 256.21 494.172C235.412 490.976 213.013 487.781 179.416 482.988Z" fill="white"/>
<path d="M468.991 476.599C468.991 476.599 504.188 561.275 504.188 562.872C529.786 569.263 553.784 578.849 577.782 590.032C588.981 575.653 616.179 550.091 616.179 550.091L603.38 462.22C560.183 428.67 529.786 415.889 529.786 415.889C520.187 420.681 468.991 476.599 468.991 476.599ZM516.987 548.493C508.987 530.919 500.988 511.747 491.389 481.392C505.788 465.416 520.187 449.439 534.585 435.06C552.184 444.646 571.382 454.232 590.581 470.209C596.98 510.15 598.58 522.931 601.78 540.505C592.181 550.091 584.181 559.677 574.582 569.263C558.583 562.872 542.585 556.482 516.987 548.493Z" fill="white" fill-opacity="0.67"/>
<path d="M395.399 206.597C400.199 228.964 404.999 249.734 409.798 272.101C430.597 270.503 452.995 273.698 473.793 276.894C488.192 259.32 504.191 241.746 520.189 225.769C516.99 203.402 515.39 182.633 512.19 160.265C491.392 155.473 468.993 152.277 446.595 149.082C428.997 168.254 411.398 187.425 395.399 206.597ZM422.597 256.124C419.397 240.148 416.198 225.769 412.998 209.793C425.797 195.414 440.196 179.437 452.995 166.656C467.394 168.254 481.792 169.851 499.391 174.644C500.991 190.621 502.591 198.609 505.79 220.976C492.991 233.757 481.792 246.538 468.993 260.917C456.194 257.722 443.396 256.124 422.597 256.124Z" fill="white"/>
<path d="M225.814 171.45C206.615 190.622 187.417 209.793 168.218 230.563C176.218 256.125 182.617 280.09 190.616 305.652C222.614 308.848 254.611 312.043 285.009 316.836C307.407 291.274 329.805 267.309 353.803 244.942C342.604 219.379 331.405 193.817 318.606 169.852C305.807 169.852 293.008 169.852 281.809 169.852C264.21 169.852 245.012 169.852 225.814 171.45ZM205.015 289.676C193.816 251.332 192.216 243.344 187.417 233.758C201.816 217.782 217.814 201.805 232.213 185.829C254.611 184.231 275.41 184.231 305.807 185.829C313.806 200.208 320.206 214.586 331.405 241.746C313.806 259.321 294.608 278.492 277.009 297.664C254.611 294.469 237.013 291.274 205.015 289.676Z" fill="white"/>
<path d="M499.391 299.259C508.99 331.212 516.989 363.165 524.989 396.716C552.186 411.095 576.184 425.474 600.182 444.645C616.181 431.864 632.18 419.083 651.378 407.9C649.778 375.947 646.579 343.994 641.779 312.041C617.781 289.674 593.783 268.904 564.985 251.33C540.987 265.709 520.189 281.685 499.391 299.259ZM539.387 383.935C532.988 356.775 528.188 334.408 520.189 307.248C536.188 294.467 552.186 281.685 566.585 272.099C585.784 284.881 604.982 297.662 625.78 318.431C628.98 339.201 632.18 361.568 633.78 395.118C622.581 403.107 609.782 411.095 596.983 422.278C582.584 409.497 566.585 398.314 539.387 383.935Z" fill="white"/>
<path d="M436.994 35.6483C446.593 53.2224 454.592 70.7965 462.592 88.3707C486.59 93.1636 510.588 101.152 534.586 109.14C548.985 96.3589 564.983 85.1754 580.982 73.9918C572.983 54.82 564.983 35.6483 552.184 18.0741C529.786 10.0859 505.788 5.29295 481.79 0.5C465.791 11.6835 451.392 22.8671 436.994 35.6483ZM475.391 75.5895C470.591 62.8083 464.191 50.0271 457.792 38.8436C468.991 30.8553 478.59 22.8671 488.19 16.4765C505.788 19.6718 521.787 22.8671 542.585 29.2577C548.985 40.4412 555.384 50.0271 561.784 67.6012C552.184 73.9918 540.985 81.9801 529.786 91.566C513.787 86.773 497.789 81.9801 475.391 75.5895Z" fill="white"/>
<path d="M46.6249 610.802C61.0238 637.962 81.8221 673.111 104.22 693.88C128.218 711.454 150.617 722.638 177.814 732.224C176.214 713.052 179.414 695.478 184.214 677.904C161.816 652.341 142.617 621.986 123.419 593.228C121.819 594.826 65.8234 564.471 54.6243 556.482C49.8247 574.056 43.4252 591.631 46.6249 610.802ZM109.02 682.697C69.0231 633.169 62.6236 615.595 61.0238 612.4C61.0238 602.814 62.6236 593.228 64.2235 580.447C77.0225 588.435 89.8214 596.424 113.82 606.009C126.618 626.779 141.017 650.744 163.415 676.306C160.216 689.087 158.616 700.271 158.616 709.857C142.617 705.064 126.618 697.075 109.02 682.697Z" fill="white"/>
<path d="M126.619 232.157C117.02 232.157 107.421 232.157 97.8215 232.157C83.4226 249.731 72.2235 267.306 59.4246 284.88C57.8247 312.04 57.8247 337.602 57.8247 364.762C78.623 371.153 99.4213 377.543 120.22 382.336C137.818 355.176 157.017 329.614 176.215 305.649C169.816 280.087 163.416 256.122 157.017 230.56C147.417 230.56 137.818 232.157 126.619 232.157ZM72.2235 350.383C70.6237 310.442 72.2235 294.466 72.2235 289.673C81.8228 275.294 93.0219 260.915 104.221 246.536C118.62 246.536 133.019 246.536 145.818 246.536C150.617 264.11 153.817 283.282 158.617 300.856C142.618 320.028 128.219 340.797 115.42 359.969C99.4213 358.372 85.0225 355.176 72.2235 350.383Z" fill="white"/>
<path d="M9.82861 372.751C9.82861 377.544 16.2281 419.083 24.2274 427.072C33.8267 396.716 56.2249 363.166 56.2249 363.166C56.2249 363.166 53.0251 278.49 54.625 270.502L46.6256 267.307C29.0271 296.064 14.6282 329.615 9.82861 372.751ZM14.6282 367.959C17.828 331.213 27.4272 305.65 38.6263 286.478C40.2262 281.685 45.0258 283.283 46.6256 284.881C45.0258 302.455 41.826 329.615 41.826 356.775C35.4265 369.556 29.0271 380.74 22.6276 393.521C19.4278 385.533 14.6282 379.142 14.6282 367.959Z" fill="white"/>
<path d="M38.627 596.422C33.8274 578.848 33.8274 556.481 40.2269 537.309L22.6283 443.048C19.4286 439.853 3.42987 403.107 3.42987 403.107C-6.16935 471.806 5.02974 534.114 38.627 596.422ZM9.82935 435.06C11.4292 438.255 13.0291 443.048 16.2288 447.841C19.4286 471.806 21.0284 495.77 30.6277 527.723C29.0278 534.114 27.4279 540.504 27.4279 546.895C11.4292 513.344 9.82935 470.208 9.82935 435.06Z" fill="white"/>
<path d="M27.4292 441.45L46.6276 542.102C67.426 556.481 89.8242 567.664 112.222 577.25C123.421 550.09 136.22 524.528 150.619 498.966C139.42 467.013 129.821 433.462 121.822 399.911C97.8235 396.716 78.6251 388.728 57.8267 379.142C48.2275 399.911 37.0284 420.681 27.4292 441.45ZM56.2269 529.321C40.2282 473.403 38.6283 454.231 38.6283 451.036C45.0278 436.657 53.0271 419.083 62.6264 403.107C73.8254 407.9 85.0245 412.692 107.423 417.485C113.822 441.45 118.622 465.415 129.821 497.368C118.622 518.137 109.023 537.309 101.023 554.883C86.6244 546.895 72.2256 540.504 56.2269 529.321Z" fill="white"/>
</g>
</svg>
