<?xml version="1.0" encoding="utf-8"?>
<!-- Generator: Adobe Illustrator 22.0.0, SVG Export Plug-In . SVG Version: 6.00 Build 0)  -->
<svg version="1.1"
	 id="svg2" inkscape:version="0.92.3 (2405546, 2018-03-11)" sodipodi:docname="logo2.svg" xmlns:cc="http://creativecommons.org/ns#" xmlns:dc="http://purl.org/dc/elements/1.1/" xmlns:inkscape="http://www.inkscape.org/namespaces/inkscape" xmlns:rdf="http://www.w3.org/1999/02/22-rdf-syntax-ns#" xmlns:sodipodi="http://sodipodi.sourceforge.net/DTD/sodipodi-0.dtd" xmlns:svg="http://www.w3.org/2000/svg"
	 xmlns="http://www.w3.org/2000/svg" xmlns:xlink="http://www.w3.org/1999/xlink" x="0px" y="0px" viewBox="0 0 162.7 53.2"
	 style="enable-background:new 0 0 162.7 53.2;" xml:space="preserve">
<style type="text/css">
	.st0{enable-background:new    ;}
	.st1{fill:#3B3C3C;}
	.st2{fill:#3F81D1;}
	.st3{fill:#646464;}
	.st4{fill:url(#path100_1_);}
	.st5{fill:url(#path122_1_);}
	.st6{fill:url(#path144_1_);}
	.st7{fill:url(#path164_1_);}
	.st8{fill:url(#path184_1_);}
	.st9{fill:url(#path204_1_);}
	.st10{fill:url(#path226_1_);}
	.st11{fill:url(#path248_1_);}
	.st12{fill:url(#path270_1_);}
	.st13{fill:url(#path292_1_);}
	.st14{fill:url(#path314_1_);}
	.st15{fill:url(#path336_1_);}
	.st16{fill:url(#path358_1_);}
	.st17{fill:url(#path378_1_);}
	.st18{fill:url(#path400_1_);}
	.st19{fill:url(#path422_1_);}
	.st20{fill:url(#path444_1_);}
	.st21{fill:url(#path466_1_);}
</style>
<sodipodi:namedview  bordercolor="#666666" borderopacity="1" fit-margin-bottom="0" fit-margin-left="0" fit-margin-right="0" fit-margin-top="0" gridtolerance="10" guidetolerance="10" id="namedview218" inkscape:current-layer="svg2" inkscape:cx="88.682668" inkscape:cy="46.849128" inkscape:pageopacity="0" inkscape:pageshadow="2" inkscape:window-height="1241" inkscape:window-maximized="0" inkscape:window-width="2079" inkscape:window-x="986" inkscape:window-y="530" inkscape:zoom="5.8081973" objecttolerance="10" pagecolor="#ffffff" showgrid="false">
	</sodipodi:namedview>
<g>
	<g class="st0">
		<path class="st1" d="M46.1,43.1h1.5V50h-1.5V43.1z M50.7,45.8c0-0.5-0.1-0.9-0.4-1.1c-0.3-0.3-0.7-0.4-1.2-0.4
			c-0.5,0-0.9,0.1-1.1,0.3s-0.4,0.6-0.4,1l-0.2-1.3c0.2-0.4,0.5-0.7,0.9-1c0.4-0.2,0.8-0.3,1.2-0.3c0.8,0,1.4,0.2,1.9,0.7
			c0.4,0.5,0.7,1.2,0.7,2.1V50h-1.5V45.8z"/>
	</g>
</g>
<g>
	<g class="st0">
		<path class="st1" d="M55.6,49.7c-0.5-0.2-0.8-0.6-1.1-1c-0.2-0.4-0.4-1-0.4-1.6V46c0-0.6,0.1-1.2,0.4-1.6c0.2-0.4,0.6-0.8,1.1-1
			c0.5-0.2,1-0.3,1.7-0.3s1.2,0.1,1.7,0.3c0.5,0.2,0.8,0.6,1.1,1c0.2,0.4,0.4,1,0.4,1.6v1.1c0,0.6-0.1,1.2-0.4,1.6s-0.6,0.8-1.1,1
			c-0.5,0.2-1,0.4-1.7,0.4S56,50,55.6,49.7z M58.4,48.4c0.3-0.3,0.4-0.7,0.4-1.2V46c0-0.5-0.1-0.9-0.4-1.2c-0.3-0.3-0.7-0.4-1.2-0.4
			s-0.9,0.1-1.2,0.4c-0.3,0.3-0.4,0.7-0.4,1.2v1.1c0,0.5,0.1,0.9,0.4,1.2s0.7,0.4,1.2,0.4S58.2,48.6,58.4,48.4z"/>
	</g>
</g>
<g>
	<g class="st0">
		<path class="st1" d="M62.4,43.1h1.5V50h-1.5V43.1z M67,45.8c0-0.5-0.1-0.9-0.4-1.1c-0.3-0.3-0.7-0.4-1.2-0.4
			c-0.5,0-0.9,0.1-1.1,0.3s-0.4,0.6-0.4,1l-0.2-1.3c0.2-0.4,0.5-0.7,0.9-1c0.4-0.2,0.8-0.3,1.2-0.3c0.8,0,1.4,0.2,1.9,0.7
			c0.4,0.5,0.7,1.2,0.7,2.1V50H67V45.8z"/>
	</g>
</g>
<g>
	<g class="st0">
		<path class="st1" d="M72.7,50.1c0,0-0.2,0-0.6-0.1s-0.7-0.2-1.1-0.4c-0.3-0.2-0.6-0.4-0.9-0.6l0.9-1c0.4,0.3,0.8,0.5,1.2,0.6
			c0.4,0.1,0.8,0.2,1.2,0.2c0.6,0,1-0.1,1.3-0.2s0.4-0.4,0.4-0.7c0-0.2-0.1-0.4-0.2-0.5c-0.2-0.1-0.4-0.2-0.6-0.2
			c-0.2,0-0.6-0.1-1-0.1c0,0-0.1,0-0.1,0c0,0-0.1,0-0.1,0c0,0,0,0-0.1,0c0,0,0,0-0.1,0c-0.5,0-0.9-0.1-1.2-0.2
			c-0.3-0.1-0.6-0.3-0.8-0.5s-0.3-0.6-0.3-1.1s0.1-0.9,0.3-1.2c0.2-0.3,0.5-0.6,1-0.7c0.4-0.2,1-0.2,1.6-0.2c0.4,0,0.8,0,1.1,0.1
			c0.4,0.1,0.7,0.2,1,0.3c0.3,0.1,0.6,0.3,0.9,0.5l-0.9,1c-0.4-0.2-0.7-0.4-1.1-0.5c-0.4-0.1-0.7-0.2-1.1-0.2
			c-0.5,0-0.9,0.1-1.1,0.2c-0.3,0.2-0.4,0.4-0.4,0.7c0,0.2,0.1,0.3,0.2,0.4c0.1,0.1,0.3,0.2,0.5,0.2c0.2,0,0.5,0.1,0.9,0.1
			c0,0,0.1,0,0.1,0c0,0,0.1,0,0.1,0c0,0,0,0,0,0c0,0,0,0,0,0c0.5,0,1,0.1,1.3,0.2c0.4,0.1,0.7,0.3,0.9,0.6s0.4,0.7,0.4,1.2
			c0,0.5-0.1,0.9-0.3,1.2c-0.2,0.3-0.6,0.6-1,0.7c-0.5,0.2-1,0.2-1.7,0.2C72.9,50.1,72.7,50.1,72.7,50.1z"/>
	</g>
</g>
<g>
	<g class="st0">
		<path class="st1" d="M77.8,43.1h3.4v1.2h-3.4V43.1z M79,49.5c-0.3-0.3-0.4-0.8-0.4-1.4v-7.1H80v7.1c0,0.2,0,0.3,0.1,0.4
			c0.1,0.1,0.2,0.1,0.3,0.1h0.7V50h-0.9C79.7,50,79.2,49.9,79,49.5z"/>
	</g>
</g>
<g>
	<g class="st0">
		<path class="st1" d="M84.4,49.7c-0.5-0.2-0.8-0.6-1.1-1c-0.2-0.4-0.4-1-0.4-1.6V46c0-0.6,0.1-1.2,0.4-1.6c0.2-0.4,0.6-0.8,1.1-1
			c0.5-0.2,1-0.3,1.7-0.3s1.2,0.1,1.7,0.3c0.5,0.2,0.8,0.6,1.1,1c0.2,0.4,0.4,1,0.4,1.6v1.1c0,0.6-0.1,1.2-0.4,1.6
			c-0.2,0.4-0.6,0.8-1.1,1c-0.5,0.2-1,0.4-1.7,0.4S84.8,50,84.4,49.7z M87.2,48.4c0.3-0.3,0.4-0.7,0.4-1.2V46c0-0.5-0.1-0.9-0.4-1.2
			c-0.3-0.3-0.7-0.4-1.2-0.4s-0.9,0.1-1.2,0.4c-0.3,0.3-0.4,0.7-0.4,1.2v1.1c0,0.5,0.1,0.9,0.4,1.2s0.7,0.4,1.2,0.4
			S86.9,48.6,87.2,48.4z"/>
	</g>
</g>
<g>
	<g class="st0">
		<path class="st1" d="M91.2,43.1h1.5v9.6h-1.5V43.1z M93.3,49.8c-0.3-0.2-0.6-0.5-0.8-0.9l0.1-1.4c0,0.3,0.1,0.5,0.2,0.8
			s0.3,0.4,0.5,0.5c0.2,0.1,0.5,0.2,0.8,0.2c0.5,0,0.9-0.1,1.1-0.4c0.3-0.3,0.4-0.7,0.4-1.1v-1.5c0-0.5-0.1-0.9-0.4-1.2
			c-0.3-0.3-0.6-0.4-1.1-0.4c-0.3,0-0.6,0.1-0.8,0.2s-0.4,0.3-0.5,0.5c-0.1,0.2-0.2,0.4-0.2,0.7l-0.2-1.3c0.2-0.4,0.5-0.7,0.9-0.9
			s0.8-0.3,1.2-0.3c0.5,0,1,0.1,1.4,0.3c0.4,0.2,0.7,0.5,0.9,1s0.3,0.9,0.3,1.5v1.5c0,0.6-0.1,1.1-0.3,1.5c-0.2,0.4-0.5,0.7-0.9,0.9
			s-0.9,0.3-1.4,0.3C94.1,50.1,93.7,50,93.3,49.8z"/>
	</g>
</g>
<g>
	<g class="st0">
		<path class="st1" d="M101.8,43.1h1.5V50h-1.5V43.1z M106.3,45.8c0-0.5-0.1-0.9-0.4-1.1s-0.7-0.4-1.2-0.4c-0.5,0-0.9,0.1-1.1,0.3
			c-0.3,0.2-0.4,0.6-0.4,1l-0.2-1.3c0.2-0.4,0.5-0.7,0.9-1c0.4-0.2,0.8-0.3,1.2-0.3c0.8,0,1.4,0.2,1.9,0.7c0.4,0.5,0.7,1.2,0.7,2.1
			V50h-1.5V45.8z"/>
	</g>
</g>
<g>
	<g class="st0">
		<path class="st1" d="M112.1,50.1c0,0-0.2-0.1-0.7-0.4c-0.5-0.2-0.9-0.6-1.1-1c-0.3-0.5-0.4-1-0.4-1.7v-0.8c0-0.7,0.1-1.3,0.4-1.7
			s0.6-0.8,1.1-1.1c0.5-0.3,1-0.4,1.7-0.4c0.6,0,1.2,0.1,1.6,0.4c0.4,0.3,0.8,0.7,1,1.2c0.2,0.5,0.4,1.2,0.4,1.9v0.4h-5V46h3.7
			c0-0.6-0.2-1-0.5-1.3c-0.3-0.3-0.6-0.5-1.1-0.5c-0.6,0-1,0.2-1.3,0.5c-0.3,0.3-0.5,0.8-0.5,1.4V47c0,0.6,0.2,1,0.5,1.3
			c0.3,0.3,0.8,0.5,1.4,0.5c0.3,0,0.6-0.1,0.9-0.2c0.3-0.1,0.6-0.3,0.8-0.5l1,0.9c-0.4,0.3-0.8,0.6-1.2,0.8
			c-0.5,0.2-0.9,0.3-1.4,0.3C112.4,50.1,112.1,50.1,112.1,50.1z"/>
	</g>
</g>
<g>
	<g class="st0">
		<path class="st1" d="M117.4,43.1h3.4v1.2h-3.4V43.1z M118.6,49.5c-0.3-0.3-0.4-0.8-0.4-1.4v-7.1h1.5v7.1c0,0.2,0,0.3,0.1,0.4
			c0.1,0.1,0.2,0.1,0.3,0.1h0.7V50h-0.9C119.3,50,118.9,49.9,118.6,49.5z"/>
	</g>
</g>
<g>
	<g class="st0">
		<path class="st1" d="M122.1,43.1h1.5L125,48l1.9-4.9h1l1.9,4.9l1.3-4.9h1.5l-2.3,6.8h-1.1l-1.8-4.7l-1.8,4.7h-1.1L122.1,43.1z"/>
	</g>
</g>
<g>
	<g class="st0">
		<path class="st1" d="M135.3,49.7c-0.5-0.2-0.8-0.6-1.1-1c-0.2-0.4-0.4-1-0.4-1.6V46c0-0.6,0.1-1.2,0.4-1.6c0.2-0.4,0.6-0.8,1.1-1
			c0.5-0.2,1-0.3,1.7-0.3s1.2,0.1,1.7,0.3c0.5,0.2,0.8,0.6,1.1,1c0.2,0.4,0.4,1,0.4,1.6v1.1c0,0.6-0.1,1.2-0.4,1.6
			c-0.2,0.4-0.6,0.8-1.1,1c-0.5,0.2-1,0.4-1.7,0.4S135.7,50,135.3,49.7z M138.1,48.4c0.3-0.3,0.4-0.7,0.4-1.2V46
			c0-0.5-0.1-0.9-0.4-1.2c-0.3-0.3-0.7-0.4-1.2-0.4s-0.9,0.1-1.2,0.4c-0.3,0.3-0.4,0.7-0.4,1.2v1.1c0,0.5,0.1,0.9,0.4,1.2
			s0.7,0.4,1.2,0.4S137.8,48.6,138.1,48.4z"/>
	</g>
</g>
<g>
	<g class="st0">
		<path class="st1" d="M142.1,43.1h1.5V50h-1.5V43.1z M145.7,44.4c-0.2-0.1-0.4-0.1-0.7-0.1c-0.5,0-0.8,0.1-1.1,0.4
			c-0.3,0.2-0.4,0.6-0.4,1l-0.2-1.3c0.2-0.4,0.5-0.7,0.9-1c0.4-0.2,0.8-0.3,1.2-0.3c0.3,0,0.7,0,0.9,0.1c0.3,0.1,0.5,0.2,0.7,0.4
			l-1,1.2C146.1,44.6,145.9,44.5,145.7,44.4z"/>
	</g>
</g>
<g>
	<g class="st0">
		<path class="st1" d="M148.4,40.4h1.5V50h-1.5V40.4z M149,47.4l3.9-4.3h1.7L149,49L149,47.4z M150.8,46l0.9-0.9L155,50h-1.6
			L150.8,46z"/>
	</g>
</g>
<g>
	<g class="st0">
		<path class="st1" d="M158.2,50.1c0,0-0.2,0-0.6-0.1c-0.4-0.1-0.7-0.2-1.1-0.4c-0.3-0.2-0.6-0.4-0.9-0.6l0.9-1
			c0.4,0.3,0.8,0.5,1.2,0.6s0.8,0.2,1.2,0.2c0.6,0,1-0.1,1.3-0.2s0.4-0.4,0.4-0.7c0-0.2-0.1-0.4-0.2-0.5c-0.2-0.1-0.4-0.2-0.6-0.2
			c-0.2,0-0.6-0.1-1-0.1c0,0-0.1,0-0.1,0s-0.1,0-0.1,0c0,0,0,0-0.1,0c0,0,0,0-0.1,0c-0.5,0-0.9-0.1-1.2-0.2s-0.6-0.3-0.8-0.5
			s-0.3-0.6-0.3-1.1s0.1-0.9,0.3-1.2c0.2-0.3,0.5-0.6,1-0.7c0.4-0.2,1-0.2,1.6-0.2c0.4,0,0.8,0,1.1,0.1c0.4,0.1,0.7,0.2,1,0.3
			c0.3,0.1,0.6,0.3,0.9,0.5l-0.9,1c-0.4-0.2-0.7-0.4-1.1-0.5c-0.4-0.1-0.7-0.2-1.1-0.2c-0.5,0-0.9,0.1-1.1,0.2s-0.4,0.4-0.4,0.7
			c0,0.2,0.1,0.3,0.2,0.4c0.1,0.1,0.3,0.2,0.5,0.2c0.2,0,0.5,0.1,0.9,0.1c0,0,0.1,0,0.1,0s0.1,0,0.1,0c0,0,0,0,0,0s0,0,0,0
			c0.5,0,1,0.1,1.3,0.2c0.4,0.1,0.7,0.3,0.9,0.6s0.4,0.7,0.4,1.2c0,0.5-0.1,0.9-0.3,1.2c-0.2,0.3-0.6,0.6-1,0.7
			c-0.5,0.2-1,0.2-1.7,0.2C158.4,50.1,158.2,50.1,158.2,50.1z"/>
	</g>
</g>
<g>
	<g>
		<path class="st2" d="M43.8,20.7H49l4,12.6l5.2-12.6h3.3l5.2,12.6l4-12.6H76l-7,18.9h-3.9l-5.2-12.7l-5.2,12.7h-3.9L43.8,20.7z"/>
		<path class="st2" d="M76.7,13.1h5.2v4.4h-5.2V13.1z M76.7,20.7h5.2v18.9h-5.2V20.7z"/>
		<path class="st2" d="M82.7,20.7h11.8v3.7H82.7V20.7z M85.1,18.1c0-1.7,0.5-2.9,1.4-3.8c0.9-0.8,2.3-1.3,4.3-1.3h3.7v4h-2.9
			c-0.4,0-0.7,0.1-1,0.4s-0.3,0.6-0.3,1v21.1h-5.2V18.1z"/>
		<path class="st2" d="M94.9,13.1h5.2v4.4h-5.2V13.1z M94.9,20.7h5.2v18.9h-5.2V20.7z"/>
		<path class="st3" d="M106.6,38.9c-1.4-0.6-2.5-1.6-3.2-2.8s-1.1-2.7-1.1-4.5v-3.1c0-1.7,0.4-3.2,1.1-4.4s1.8-2.2,3.2-2.8
			c1.4-0.6,3.1-1,5-1s3.6,0.3,5,1c1.4,0.6,2.5,1.6,3.2,2.8c0.7,1.2,1.1,2.7,1.1,4.4v3.1c0,1.7-0.4,3.2-1.1,4.4
			c-0.7,1.2-1.8,2.2-3.2,2.8c-1.4,0.6-3.1,1-5,1S108,39.6,106.6,38.9z M116.2,35.9c1.1-1,1.6-2.4,1.6-4.2v-3.1
			c0-1.8-0.5-3.2-1.6-4.2c-1.1-1-2.6-1.5-4.6-1.5c-2,0-3.5,0.5-4.6,1.5s-1.6,2.4-1.6,4.2v3.1c0,1.8,0.5,3.2,1.6,4.2
			c1.1,1,2.6,1.5,4.6,1.5C113.6,37.4,115.1,36.9,116.2,35.9z"/>
		<path class="st3" d="M122.3,20.7h3.1v18.9h-3.1V20.7z M137.4,28.1c0-1.7-0.5-3-1.6-3.9c-1.1-0.9-2.5-1.4-4.5-1.4
			c-1.9,0-3.3,0.4-4.3,1.2c-1,0.8-1.5,2-1.5,3.5l-0.5-3.7c0.8-1.2,1.9-2.1,3.2-2.7c1.3-0.6,2.9-0.8,4.6-0.8c2.5,0,4.4,0.7,5.7,2
			c1.3,1.3,2,3.2,2,5.7v11.5h-3.1V28.1z"/>
		<path class="st3" d="M148.5,39.9c0,0-0.7-0.3-2.2-1s-2.6-1.6-3.4-2.9s-1.2-2.8-1.2-4.6v-2.1c0-1.9,0.4-3.5,1.1-4.8
			c0.8-1.3,1.8-2.3,3.3-3c1.4-0.7,3.1-1,5.2-1c1.9,0,3.5,0.3,4.9,1s2.4,1.7,3.1,3s1.1,2.9,1.1,4.7v2.2h-16.4v-2.4h13.5v-0.2
			c0-1.9-0.5-3.3-1.6-4.4c-1.1-1-2.5-1.5-4.5-1.5c-2.1,0-3.7,0.5-4.9,1.6c-1.2,1.1-1.7,2.6-1.7,4.6v2.4c0,1.9,0.6,3.4,1.8,4.4
			c1.2,1,3,1.6,5.2,1.6c1,0,2.1-0.2,3.1-0.5s1.9-0.9,2.7-1.6l2.1,1.7c-1.1,0.9-2.4,1.6-3.8,2.1c-1.4,0.5-2.8,0.7-4.2,0.7
			C149.5,39.9,148.5,39.9,148.5,39.9z"/>
	</g>
</g>
<g id="g1336">
	
		<radialGradient id="path100_1_" cx="-305.344" cy="299.0689" r="0.5933" gradientTransform="matrix(9.7163 0 0 -9.7163 2992.2505 2939.9629)" gradientUnits="userSpaceOnUse">
		<stop  offset="0" style="stop-color:#D1EBF8"/>
		<stop  offset="0.4188" style="stop-color:#D1EBF8"/>
		<stop  offset="1" style="stop-color:#94C7EB"/>
	</radialGradient>
	<path id="path100" inkscape:connector-curvature="0" class="st4" d="M19.3,34l3.3,5.4l6.2,0.1l2.9-4l-2.4-5.4L23,28.8L19.3,34z
		 M23.2,38.2c-0.7-1.1-1.5-2.3-2.5-4.2l0,0c0.9-1.3,1.9-2.7,2.9-4l0,0c1.7,0.3,3.1,0.5,4.9,0.9l0,0c0.6,1.4,1.1,2.7,1.9,4.2l0,0
		c-0.8,1-1.6,2.1-2.3,3.1l0,0C26.3,38.3,25.8,38.3,23.2,38.2"/>
	
		<radialGradient id="path122_1_" cx="-332.3815" cy="315.449" r="0.5933" gradientTransform="matrix(38.9506 0 0 -38.9506 13091.2959 12161.9834)" gradientUnits="userSpaceOnUse">
		<stop  offset="0" style="stop-color:#2AC4F3"/>
		<stop  offset="0.332" style="stop-color:#2AC4F3"/>
		<stop  offset="1" style="stop-color:#0095DA"/>
	</radialGradient>
	<path id="path122" inkscape:connector-curvature="0" class="st5" d="M23.2,40l-2.1,4.2l4.9,2.6c0,0,5-1.3,5.8-1.7l0,0
		c0.3-0.7,0.7-1.5,1.3-2.3l0,0c-1.4-0.7-2.7-1.8-3.9-2.9l0,0C28.3,40,23.2,40,23.2,40 M22.5,44c0.4-0.9,0.9-1.9,1.5-2.9l0,0
		c1,0,1.9,0,2.9-0.1l0,0c0.7,0,1.3,0,2-0.1l0,0c1.1,1,1.7,1.6,2.8,2.2l0,0c-0.3,0.6-0.6,1.2-0.9,1.8l0,0c-1.4,0.3-2.8,0.7-4.6,1l0,0
		C24.7,45.3,23.9,45,22.5,44"/>
	
		<radialGradient id="path144_1_" cx="-331.4046" cy="314.8766" r="0.5933" gradientTransform="matrix(36.035 0 0 -36.035 12061.9834 11230.584)" gradientUnits="userSpaceOnUse">
		<stop  offset="0" style="stop-color:#2AC4F3"/>
		<stop  offset="0.332" style="stop-color:#2AC4F3"/>
		<stop  offset="1" style="stop-color:#0095DA"/>
	</radialGradient>
	<path id="path144" inkscape:connector-curvature="0" class="st6" d="M32.5,45.2L26.8,47l-0.3,2.1c0,0,3.2,0,5.6-0.7l0,0l4.9-2.8
		l0.2-1.4C37.3,44.2,34.4,45.2,32.5,45.2 M27.9,47.3c1.3-0.3,2.7-0.7,4.5-1.3l0,0c1.4-0.1,2.2-0.1,3.5-0.5l0,0c0,0-0.1,0.4-0.1,0.4
		l0,0c-1.1,0.7-2.2,1.2-3.9,2l0,0c-1.6,0.4-2.5,0.6-4.2,0.6l0,0C27.7,48.1,27.8,47.7,27.9,47.3"/>
	
		<linearGradient id="path164_1_" gradientUnits="userSpaceOnUse" x1="-340.1379" y1="356.498" x2="-339.5446" y2="356.498" gradientTransform="matrix(-8.0618 9.8132 9.8132 8.0618 -6218.9189 507.7237)">
		<stop  offset="0" style="stop-color:#00ADEE"/>
		<stop  offset="1" style="stop-color:#262261"/>
	</linearGradient>
	<path id="path164" inkscape:connector-curvature="0" class="st7" d="M13.7,47.2c1.7,1.1,3.5,2,5.5,2.6l0,0c1.8,0,3.6-0.2,5.4-0.5
		l0,0c-0.1-0.9,0.1-1.7,0.4-2.6l0,0c-1.8-0.7-3.4-1.5-4.9-2.6l0,0c-2,0-3.9,0-5.9-0.3l0,0C13.9,44.9,13.6,46.1,13.7,47.2 M19.2,49
		c-1.3-0.5-2.7-1-4.4-2.1l0,0c0-0.6,0.1-1.3,0.3-2l0,0c1.3,0.1,2.6,0.2,4.6,0.2l0,0c1.1,0.7,2.3,1.5,3.9,2.1l0,0
		c-0.1,0.6-0.2,1.1-0.2,1.5l0,0c-1.3,0.2-2.5,0.3-4,0.3l0,0C19.3,49,19.3,49,19.2,49"/>
	
		<linearGradient id="path184_1_" gradientUnits="userSpaceOnUse" x1="-339.4961" y1="348.2558" x2="-338.9028" y2="348.2558" gradientTransform="matrix(-11.0246 13.4196 13.4196 11.0246 -8397.4834 750.9088)">
		<stop  offset="0" style="stop-color:#00ADEE"/>
		<stop  offset="1" style="stop-color:#262261"/>
	</linearGradient>
	<path id="path184" inkscape:connector-curvature="0" class="st8" d="M9.4,37.9c1.2,1.9,2.4,3.7,3.9,5.3l0,0c2,0.2,3.9,0.4,5.9,0.4
		l0,0c0.6-1.5,1.4-3,2.2-4.4l0,0c-1.2-1.7-2.3-3.5-3.3-5.4l0,0c-2.1-0.2-4.2-0.5-6.3-0.8l0,0C10.9,34.6,10.1,36.3,9.4,37.9
		 M13.7,42.3c-1-1.1-1.9-2.3-3.1-4.2l0,0c0.5-1.1,1.1-2.4,1.9-3.7l0,0c1.5,0.2,2.5,0.4,4.9,0.6l0,0c0.8,1.4,1.5,2.7,2.7,4.3l0,0
		c-0.7,1.2-1.2,2.3-1.7,3.3l0,0C16.9,42.6,15.5,42.5,13.7,42.3"/>
	
		<linearGradient id="path204_1_" gradientUnits="userSpaceOnUse" x1="-338.978" y1="343.5539" x2="-338.3846" y2="343.5539" gradientTransform="matrix(-13.9366 16.9641 16.9641 13.9366 -10532.752 984.0715)">
		<stop  offset="0" style="stop-color:#00ADEE"/>
		<stop  offset="1" style="stop-color:#262261"/>
	</linearGradient>
	<path id="path204" inkscape:connector-curvature="0" class="st9" d="M9.4,25.5c0.6,2.1,1.2,4.2,2,6.2l0,0c2.1,0.3,4.2,0.6,6.2,0.9
		l0,0c1.2-1.8,2.5-3.5,3.8-5.2l0,0c-0.8-2-1.6-4.1-2.3-6.2l0,0c-2-0.3-4-0.5-6-0.8l0,0C11.8,22.1,10.6,23.8,9.4,25.5 M12.2,30.7
		c-0.5-1.4-1-2.8-1.6-4.9l0,0c0.9-1.3,1.9-2.7,2.9-4l0,0c1.7,0.2,3,0.4,4.7,0.6l0,0c0.4,1.2,1.1,2.9,1.9,4.9l0,0
		c-1.1,1.4-2.1,2.8-3.1,4.1l0,0C15.7,31.2,14.3,31,12.2,30.7"/>
	
		<radialGradient id="path226_1_" cx="-334.005" cy="316.5898" r="0.5933" gradientTransform="matrix(53.8069 0 0 -53.8069 18109.9844 16800.5059)" gradientUnits="userSpaceOnUse">
		<stop  offset="0" style="stop-color:#2AC4F3"/>
		<stop  offset="0.332" style="stop-color:#2AC4F3"/>
		<stop  offset="1" style="stop-color:#0095DA"/>
	</radialGradient>
	<path id="path226" inkscape:connector-curvature="0" class="st10" d="M30.3,30.3c0,0,2.2,5.3,2.2,5.4l0,0c1.6,0.4,3.1,1,4.6,1.7
		l0,0c0.7-0.9,2.4-2.5,2.4-2.5l0,0l-0.8-5.5c-2.7-2.1-4.6-2.9-4.6-2.9l0,0C33.5,26.8,30.3,30.3,30.3,30.3 M33.3,34.8
		c-0.5-1.1-1-2.3-1.6-4.2l0,0c0.9-1,1.8-2,2.7-2.9l0,0c1.1,0.6,2.3,1.2,3.5,2.2l0,0c0.4,2.5,0.5,3.3,0.7,4.4l0,0
		c-0.6,0.6-1.1,1.2-1.7,1.8l0,0C35.9,35.7,34.9,35.3,33.3,34.8"/>
	
		<radialGradient id="path248_1_" cx="-290.4196" cy="285.1639" r="0.5933" gradientTransform="matrix(6.6455 0 0 -6.6455 1959.5753 1908.8539)" gradientUnits="userSpaceOnUse">
		<stop  offset="0" style="stop-color:#D1EBF8"/>
		<stop  offset="0.4188" style="stop-color:#D1EBF8"/>
		<stop  offset="1" style="stop-color:#94C7EB"/>
	</radialGradient>
	<path id="path248" inkscape:connector-curvature="0" class="st11" d="M25.7,13.4c0.3,1.4,0.6,2.7,0.9,4.1l0,0
		c1.3-0.1,2.7,0.1,4,0.3l0,0c0.9-1.1,1.9-2.2,2.9-3.2l0,0c-0.2-1.4-0.3-2.7-0.5-4.1l0,0c-1.3-0.3-2.7-0.5-4.1-0.7l0,0
		C27.8,11,26.7,12.2,25.7,13.4 M27.4,16.5c-0.2-1-0.4-1.9-0.6-2.9l0,0c0.8-0.9,1.7-1.9,2.5-2.7l0,0c0.9,0.1,1.8,0.2,2.9,0.5l0,0
		c0.1,1,0.2,1.5,0.4,2.9l0,0c-0.8,0.8-1.5,1.6-2.3,2.5l0,0C29.5,16.6,28.7,16.5,27.4,16.5"/>
	
		<radialGradient id="path270_1_" cx="-333.1393" cy="315.468" r="0.5933" gradientTransform="matrix(47.776 0 0 -47.7759 16034.0605 14830.0518)" gradientUnits="userSpaceOnUse">
		<stop  offset="0" style="stop-color:#2AC4F3"/>
		<stop  offset="0.332" style="stop-color:#2AC4F3"/>
		<stop  offset="1" style="stop-color:#0095DA"/>
	</radialGradient>
	<path id="path270" inkscape:connector-curvature="0" class="st12" d="M15.1,11.2c-1.2,1.2-2.4,2.4-3.6,3.7l0,0
		c0.5,1.6,0.9,3.1,1.4,4.7l0,0c2,0.2,4,0.4,5.9,0.7l0,0c1.4-1.6,2.8-3.1,4.3-4.5l0,0c-0.7-1.6-1.4-3.2-2.2-4.7l0,0
		c-0.8,0-1.6,0-2.3,0l0,0C17.5,11.1,16.3,11.1,15.1,11.2 M13.8,18.6c-0.7-2.4-0.8-2.9-1.1-3.5l0,0c0.9-1,1.9-2,2.8-3l0,0
		c1.4-0.1,2.7-0.1,4.6,0l0,0c0.5,0.9,0.9,1.8,1.6,3.5l0,0c-1.1,1.1-2.3,2.3-3.4,3.5l0,0C16.9,18.9,15.8,18.7,13.8,18.6"/>
	
		<radialGradient id="path292_1_" cx="-334.0162" cy="316.2438" r="0.5933" gradientTransform="matrix(51.7227 0 0 -51.7227 17429.1367 16121.0723)" gradientUnits="userSpaceOnUse">
		<stop  offset="0" style="stop-color:#2AC4F3"/>
		<stop  offset="0.332" style="stop-color:#2AC4F3"/>
		<stop  offset="1" style="stop-color:#0095DA"/>
	</radialGradient>
	<path id="path292" inkscape:connector-curvature="0" class="st13" d="M32.2,19.2c0.6,2,1.1,4,1.6,6.1l0,0c1.7,0.9,3.2,1.8,4.7,3
		l0,0c1-0.8,2-1.6,3.2-2.3l0,0c-0.1-2-0.3-4-0.6-6l0,0c-1.5-1.4-3-2.7-4.8-3.8l0,0C34.8,17.1,33.5,18.1,32.2,19.2 M34.7,24.5
		c-0.4-1.7-0.7-3.1-1.2-4.8l0,0c1-0.8,2-1.6,2.9-2.2l0,0c1.2,0.8,2.4,1.6,3.7,2.9l0,0c0.2,1.3,0.4,2.7,0.5,4.8l0,0
		c-0.7,0.5-1.5,1-2.3,1.7l0,0C37.4,26.1,36.4,25.4,34.7,24.5"/>
	
		<radialGradient id="path314_1_" cx="-333.7487" cy="315.2611" r="0.5933" gradientTransform="matrix(43.8427 0 0 -43.8427 14820.5918 13619.4814)" gradientUnits="userSpaceOnUse">
		<stop  offset="0" style="stop-color:#2AC4F3"/>
		<stop  offset="0.332" style="stop-color:#2AC4F3"/>
		<stop  offset="1" style="stop-color:#0095DA"/>
	</radialGradient>
	<path id="path314" inkscape:connector-curvature="0" class="st14" d="M28.3,2.7c0.6,1.1,1.1,2.2,1.6,3.3l0,0c1.5,0.3,3,0.8,4.5,1.3
		l0,0c0.9-0.8,1.9-1.5,2.9-2.2l0,0c-0.5-1.2-1-2.4-1.8-3.5l0,0c-1.4-0.5-2.9-0.8-4.4-1.1l0,0C30.1,1.2,29.2,1.9,28.3,2.7 M30.7,5.2
		c-0.3-0.8-0.7-1.6-1.1-2.3l0,0c0.7-0.5,1.3-1,1.9-1.4l0,0c1.1,0.2,2.1,0.4,3.4,0.8l0,0c0.4,0.7,0.8,1.3,1.2,2.4l0,0
		c-0.6,0.4-1.3,0.9-2,1.5l0,0C33.1,5.9,32.1,5.6,30.7,5.2"/>
	
		<radialGradient id="path336_1_" cx="-278.1918" cy="272.7898" r="0.5933" gradientTransform="matrix(5.1247 0 0 -5.1247 1470.6488 1406.7981)" gradientUnits="userSpaceOnUse">
		<stop  offset="0" style="stop-color:#D1EBF8"/>
		<stop  offset="0.4188" style="stop-color:#D1EBF8"/>
		<stop  offset="1" style="stop-color:#94C7EB"/>
	</radialGradient>
	<path id="path336" inkscape:connector-curvature="0" class="st15" d="M42,6.4c0.1,1,0.1,2,0.1,3.1l0,0c1,0.8,2,1.5,3,2.4l0,0
		c1-0.3,1.9-0.5,2.9-0.7l0,0c0-1.1,0-2.1-0.2-3.2l0,0c-0.9-0.8-1.9-1.6-3-2.2l0,0C43.8,5.9,42.9,6.1,42,6.4 M43,9.1
		c0-0.7,0-1.4-0.1-2.1l0,0c0.7-0.2,1.3-0.3,1.9-0.4l0,0c0.7,0.5,1.5,1,2.3,1.8l0,0c0.1,0.6,0.2,1.3,0.2,2.2l0,0
		c-0.6,0.1-1.3,0.3-2,0.5l0,0C44.6,10.4,43.9,9.8,43,9.1"/>
	
		<radialGradient id="path358_1_" cx="-332.4729" cy="314.3865" r="0.5933" gradientTransform="matrix(37.0569 0 0 -37.0569 12487.3037 11493.167)" gradientUnits="userSpaceOnUse">
		<stop  offset="0" style="stop-color:#2AC4F3"/>
		<stop  offset="0.332" style="stop-color:#2AC4F3"/>
		<stop  offset="1" style="stop-color:#0095DA"/>
	</radialGradient>
	<path id="path358" inkscape:connector-curvature="0" class="st16" d="M15.5,7c-1,0.5-2,1.4-2.9,2.1l0,0c0.9,0.5,1.6,1,2.2,1.8l0,0
		c1.9-0.2,3.8-0.3,5.7-0.3l0,0c1.2-1.1,2.6-2,3.9-2.9l0,0c-1.1-0.9-2-1.5-3.4-1.9l0,0C20.3,6,16.6,6.7,15.5,7 M14.3,8.8
		c0.6-0.5,1.2-0.9,1.8-1.3l0,0c1.3-0.4,2.7-0.7,4.7-0.9l0,0c0.9,0.3,1.3,0.5,2.1,1.1l0,0c-0.8,0.6-1.7,1.2-2.7,2l0,0
		c-1.3,0-2.8,0-4.6,0.3l0,0C15.2,9.5,14.8,9.1,14.3,8.8"/>
	
		<linearGradient id="path378_1_" gradientUnits="userSpaceOnUse" x1="-340.8721" y1="367.5715" x2="-340.2788" y2="367.5715" gradientTransform="matrix(-6.1082 7.435 7.435 6.1082 -4805.0127 327.8393)">
		<stop  offset="0" style="stop-color:#00ADEE"/>
		<stop  offset="1" style="stop-color:#262261"/>
	</linearGradient>
	<path id="path378" inkscape:connector-curvature="0" class="st17" d="M3.9,38.7c0.9,1.7,2.2,3.9,3.6,5.2l0,0
		c1.5,1.1,2.9,1.8,4.6,2.4l0,0c-0.1-1.2,0.1-2.3,0.4-3.4l0,0c-1.4-1.6-2.6-3.5-3.8-5.3l0,0c-0.1,0.1-3.6-1.8-4.3-2.3l0,0
		C4.1,36.4,3.7,37.5,3.9,38.7 M7.8,43.2c-2.5-3.1-2.9-4.2-3-4.4l0,0c0-0.6,0.1-1.2,0.2-2l0,0c0.8,0.5,1.6,1,3.1,1.6l0,0
		c0.8,1.3,1.7,2.8,3.1,4.4l0,0c-0.2,0.8-0.3,1.5-0.3,2.1l0,0C9.9,44.6,8.9,44.1,7.8,43.2"/>
	
		<radialGradient id="path400_1_" cx="-334.0504" cy="316.6882" r="0.5933" gradientTransform="matrix(63.9892 0 0 -63.9892 21450.2813 19920.2617)" gradientUnits="userSpaceOnUse">
		<stop  offset="0" style="stop-color:#2AC4F3"/>
		<stop  offset="0.332" style="stop-color:#2AC4F3"/>
		<stop  offset="1" style="stop-color:#0095DA"/>
	</radialGradient>
	<path id="path400" inkscape:connector-curvature="0" class="st18" d="M8.9,15c-0.6,0-1.2,0-1.8,0l0,0c-0.9,1.1-1.6,2.2-2.4,3.3l0,0
		c-0.1,1.7-0.1,3.3-0.1,5l0,0c1.3,0.4,2.6,0.8,3.9,1.1l0,0c1.1-1.7,2.3-3.3,3.5-4.8l0,0c-0.4-1.6-0.8-3.1-1.2-4.7l0,0
		C10.2,14.9,9.6,15,8.9,15 M5.5,22.4c-0.1-2.5,0-3.5,0-3.8l0,0c0.6-0.9,1.3-1.8,2-2.7l0,0c0.9,0,1.8,0,2.6,0l0,0
		c0.3,1.1,0.5,2.3,0.8,3.4l0,0c-1,1.2-1.9,2.5-2.7,3.7l0,0C7.2,22.9,6.3,22.7,5.5,22.4"/>
	
		<radialGradient id="path422_1_" cx="-335.0109" cy="317.8003" r="0.5933" gradientTransform="matrix(89.6099 0 0 -89.6098 30051.6523 27982.4902)" gradientUnits="userSpaceOnUse">
		<stop  offset="0" style="stop-color:#2AC4F3"/>
		<stop  offset="0.332" style="stop-color:#2AC4F3"/>
		<stop  offset="1" style="stop-color:#0095DA"/>
	</radialGradient>
	<path id="path422" inkscape:connector-curvature="0" class="st19" d="M1.6,23.8c0,0.3,0.4,2.9,0.9,3.4l0,0c0.6-1.9,2-4,2-4l0,0
		c0,0-0.2-5.3-0.1-5.8l0,0l-0.5-0.2C2.8,19,1.9,21.1,1.6,23.8 M1.9,23.5c0.2-2.3,0.8-3.9,1.5-5.1l0,0c0.1-0.3,0.4-0.2,0.5-0.1l0,0
		c-0.1,1.1-0.3,2.8-0.3,4.5l0,0c-0.4,0.8-0.8,1.5-1.2,2.3l0,0C2.2,24.6,1.9,24.2,1.9,23.5"/>
	
		<radialGradient id="path444_1_" cx="-333.3053" cy="316.6819" r="0.5933" gradientTransform="matrix(61.1446 0 0 -61.1446 20406.7734 19051.4043)" gradientUnits="userSpaceOnUse">
		<stop  offset="0" style="stop-color:#2AC4F3"/>
		<stop  offset="0.332" style="stop-color:#2AC4F3"/>
		<stop  offset="1" style="stop-color:#0095DA"/>
	</radialGradient>
	<path id="path444" inkscape:connector-curvature="0" class="st20" d="M3.4,37.8c-0.3-1.1-0.3-2.5,0.1-3.7l0,0l-1.1-5.9
		c-0.2-0.2-1.2-2.5-1.2-2.5l0,0C0.6,30,1.3,33.9,3.4,37.8 M1.6,27.7c0.1,0.2,0.2,0.5,0.4,0.8l0,0c0.2,1.5,0.3,3,0.9,5l0,0
		c-0.1,0.4-0.2,0.8-0.2,1.2l0,0C1.7,32.6,1.6,29.9,1.6,27.7"/>
	
		<radialGradient id="path466_1_" cx="-333.4545" cy="316.4418" r="0.5933" gradientTransform="matrix(56.8914 0 0 -56.8914 19042.6836 17720.1797)" gradientUnits="userSpaceOnUse">
		<stop  offset="0" style="stop-color:#2AC4F3"/>
		<stop  offset="0.332" style="stop-color:#2AC4F3"/>
		<stop  offset="1" style="stop-color:#0095DA"/>
	</radialGradient>
	<path id="path466" inkscape:connector-curvature="0" class="st21" d="M2.7,28.1l1.2,6.3C5.2,35.3,6.6,36,8,36.6l0,0
		c0.7-1.7,1.5-3.3,2.4-4.9l0,0c-0.7-2-1.3-4.1-1.8-6.2l0,0c-1.5-0.2-2.7-0.7-4-1.3l0,0C4,25.5,3.3,26.8,2.7,28.1 M4.5,33.6
		c-1-3.5-1.1-4.7-1.1-4.9l0,0c0.4-0.9,0.9-2,1.5-3l0,0c0.7,0.3,1.4,0.6,2.8,0.9l0,0c0.4,1.5,0.7,3,1.4,5l0,0
		c-0.7,1.3-1.3,2.5-1.8,3.6l0,0C6.4,34.7,5.5,34.3,4.5,33.6"/>
</g>
</svg>
