<svg width="1201" height="336" viewBox="0 0 1201 336" fill="none" xmlns="http://www.w3.org/2000/svg">
<g opacity="0.06">
<path d="M467.721 267.098L552.035 391.925L710.443 394.237L784.536 301.772L723.217 176.945L562.255 146.895L467.721 267.098ZM567.365 364.186C549.48 338.758 529.04 311.019 503.491 267.098C526.485 237.047 552.035 204.685 577.585 174.634C621.019 181.569 656.788 186.192 702.778 195.438C718.107 227.801 730.882 257.852 751.322 292.526C730.882 315.642 710.443 341.07 692.558 364.186C646.569 366.498 633.794 366.498 567.365 364.186Z" fill="url(#paint0_radial_495_12479)"/>
<path d="M214.783 357.25C245.442 401.17 276.102 442.779 314.426 479.765C365.525 484.388 414.07 489.012 465.169 489.012C480.499 454.337 500.938 419.663 521.378 387.301C490.719 348.003 462.614 306.394 437.064 262.474C383.41 257.851 329.756 250.916 276.102 243.981C253.107 280.967 232.667 320.264 214.783 357.25ZM324.646 458.961C299.096 433.533 276.102 405.794 245.442 361.873C258.217 336.445 273.547 306.394 293.987 276.344C332.311 280.967 357.861 285.59 419.18 290.213C439.619 322.576 457.504 352.627 488.164 389.612C470.279 417.352 457.504 442.779 444.729 465.895C406.405 465.895 370.635 463.584 324.646 458.961Z" fill="url(#paint1_linear_495_12479)"/>
<path d="M214.783 70.6079C230.112 119.152 245.442 167.696 265.882 213.928C319.536 220.863 373.19 227.797 424.29 234.732C454.949 193.123 488.164 153.826 521.378 114.529C500.938 68.2963 480.499 19.7525 462.614 -28.7913C411.515 -35.7261 360.416 -40.3493 309.316 -47.2842C276.102 -7.98681 245.442 31.3106 214.783 70.6079ZM286.322 190.812C273.547 158.449 260.772 126.087 245.442 77.5427C268.437 47.4918 293.987 15.1293 319.536 -14.9216C362.97 -10.2984 396.185 -5.6752 439.619 -1.05198C449.839 26.6873 467.724 65.9847 488.164 112.217C460.059 144.579 434.509 176.942 408.96 206.993C375.745 202.37 339.976 197.746 286.322 190.812Z" fill="url(#paint2_linear_495_12479)"/>
<path d="M748.767 181.567C748.767 181.567 804.976 304.083 804.976 306.394C845.856 315.641 884.18 329.51 922.504 345.692C940.389 324.887 983.824 287.901 983.824 287.901L963.384 160.763C894.4 112.219 845.856 93.7261 845.856 93.7261C830.526 100.661 748.767 181.567 748.767 181.567ZM825.416 285.59C812.641 260.162 799.866 232.423 784.537 188.502C807.531 165.386 830.526 142.27 853.521 121.465C881.625 135.335 912.285 149.205 942.944 172.321C953.164 230.111 955.719 248.604 960.829 274.032C945.499 287.901 932.724 301.771 917.395 315.641C891.845 306.394 866.295 297.148 825.416 285.59Z" fill="url(#paint3_radial_495_12479)" fill-opacity="0.38"/>
<path d="M797.315 -75.0223C812.645 -28.7901 825.42 17.4421 838.195 65.9859C881.629 86.7904 919.954 107.595 958.278 135.334C983.828 116.841 1009.38 98.3484 1040.04 82.1672C1037.48 35.935 1032.37 -10.2972 1024.71 -56.5294C986.383 -88.892 948.058 -118.943 902.069 -144.371C863.744 -123.566 830.53 -100.45 797.315 -75.0223ZM861.189 47.493C850.97 8.19565 843.305 -24.1669 830.53 -63.4642C856.08 -81.9571 881.629 -100.45 904.624 -114.32C935.283 -95.8268 965.943 -77.3339 999.157 -47.283C1004.27 -17.2321 1009.38 15.1305 1011.93 63.6743C994.047 75.2324 973.608 86.7904 953.168 102.972C930.173 84.4788 904.624 68.2975 861.189 47.493Z" fill="url(#paint4_radial_495_12479)" fill-opacity="0.57"/>
<path d="M74.2568 375.743C97.2514 415.041 130.466 465.896 166.235 495.947C204.56 521.375 240.329 537.556 283.764 551.426C281.209 523.686 286.319 498.259 293.983 472.831C258.214 435.845 227.554 391.924 196.895 350.315C194.34 352.627 104.916 308.706 87.0316 297.148C79.3667 322.576 69.1468 348.004 74.2568 375.743ZM173.9 479.766C110.026 408.106 99.8064 382.678 97.2514 378.055C97.2514 364.185 99.8064 350.315 102.361 331.823C122.801 343.381 143.241 354.939 181.565 368.808C202.005 398.859 224.999 433.533 260.769 470.519C255.659 489.012 253.104 505.193 253.104 519.063C227.554 512.128 202.005 500.57 173.9 479.766Z" fill="url(#paint5_linear_495_12479)"/>
<path d="M202.006 -172.111C186.677 -172.111 171.347 -172.111 156.017 -172.111C133.022 -146.684 115.138 -121.256 94.698 -95.8281C92.1431 -56.5307 92.1431 -19.545 92.1431 19.7524C125.358 28.9988 158.572 38.2453 191.787 45.1801C219.891 5.88275 250.551 -31.103 281.21 -65.7772C270.99 -102.763 260.771 -137.437 250.551 -174.423C235.221 -174.423 219.891 -172.111 202.006 -172.111ZM115.138 -1.05208C112.583 -58.8423 115.138 -81.9584 115.138 -88.8933C130.467 -109.698 148.352 -130.502 166.237 -151.307C189.232 -151.307 212.226 -151.307 232.666 -151.307C240.331 -125.879 245.441 -98.1397 253.106 -72.712C227.556 -44.9727 204.561 -14.9217 184.122 12.8176C158.572 10.506 135.577 5.88275 115.138 -1.05208Z" fill="url(#paint6_radial_495_12479)"/>
<path d="M15.4946 31.3118C15.4946 38.2467 25.7145 98.3486 38.4893 109.907C53.819 65.986 89.5885 17.4422 89.5885 17.4422C89.5885 17.4422 84.4786 -105.073 87.0335 -116.631L74.2587 -121.254C46.1542 -79.6454 23.1595 -31.1016 15.4946 31.3118ZM23.1595 24.377C28.2694 -28.79 43.5992 -65.7758 61.4839 -93.5151C64.0389 -100.45 71.7038 -98.1383 74.2587 -95.8267C71.7038 -70.399 66.5938 -31.1016 66.5938 8.19572C56.374 26.6886 46.1542 42.8699 35.9343 61.3628C30.8244 49.8047 23.1595 40.5583 23.1595 24.377Z" fill="url(#paint7_radial_495_12479)"/>
<path d="M61.4846 354.937C53.8197 329.509 53.8197 297.146 64.0396 269.407L35.935 133.022C30.8251 128.399 5.27547 75.2319 5.27547 75.2319C-10.0543 174.631 7.83043 264.784 61.4846 354.937ZM15.4953 121.464C18.0503 126.087 20.6052 133.022 25.7152 139.957C30.8251 174.631 33.38 209.305 48.7098 255.538C46.1549 264.784 43.5999 274.03 43.5999 283.277C18.0503 234.733 15.4953 172.32 15.4953 121.464Z" fill="url(#paint8_radial_495_12479)"/>
<path d="M43.6016 130.71L74.2611 276.342C107.476 297.146 143.245 313.328 179.014 327.197C196.899 287.9 217.339 250.914 240.334 213.928C222.449 167.696 207.119 119.152 194.344 70.6085C156.02 65.9853 125.36 54.4273 92.1458 40.5576C76.8161 70.6085 58.9313 100.659 43.6016 130.71ZM89.5909 257.849C64.0413 176.943 61.4863 149.203 61.4863 144.58C71.7061 123.776 84.4809 98.3479 99.8107 75.2318C117.695 82.1666 135.58 89.1014 171.35 96.0362C181.569 130.71 189.234 165.385 207.119 211.617C189.234 241.668 173.905 269.407 161.13 294.835C138.135 283.277 115.14 274.03 89.5909 257.849Z" fill="url(#paint9_radial_495_12479)"/>
</g>
<defs>
<radialGradient id="paint0_radial_495_12479" cx="0" cy="0" r="1" gradientUnits="userSpaceOnUse" gradientTransform="translate(624.509 269.866) scale(147.285 133.257)">
<stop stop-color="#D1EBF8"/>
<stop offset="0.4188" stop-color="#D1EBF8"/>
<stop offset="1" stop-color="#94C7EB"/>
</radialGradient>
<linearGradient id="paint1_linear_495_12479" x1="454.408" y1="276.062" x2="306.82" y2="474.625" gradientUnits="userSpaceOnUse">
<stop stop-color="#00ADEE"/>
<stop offset="1" stop-color="#262261"/>
</linearGradient>
<linearGradient id="paint2_linear_495_12479" x1="473.639" y1="-19.8201" x2="287.036" y2="231.231" gradientUnits="userSpaceOnUse">
<stop stop-color="#00ADEE"/>
<stop offset="1" stop-color="#262261"/>
</linearGradient>
<radialGradient id="paint3_radial_495_12479" cx="0" cy="0" r="1" gradientUnits="userSpaceOnUse" gradientTransform="translate(3505.85 -5932.87) scale(815.637 737.95)">
<stop stop-color="#2AC4F3"/>
<stop offset="0.332" stop-color="#2AC4F3"/>
<stop offset="1" stop-color="#0095DA"/>
</radialGradient>
<radialGradient id="paint4_radial_495_12479" cx="0" cy="0" r="1" gradientUnits="userSpaceOnUse" gradientTransform="translate(3881.59 -5972.19) scale(784.043 709.366)">
<stop stop-color="#2AC4F3"/>
<stop offset="0.332" stop-color="#2AC4F3"/>
<stop offset="1" stop-color="#0095DA"/>
</radialGradient>
<linearGradient id="paint5_linear_495_12479" x1="230.017" y1="374.714" x2="148.245" y2="484.726" gradientUnits="userSpaceOnUse">
<stop stop-color="#00ADEE"/>
<stop offset="1" stop-color="#262261"/>
</linearGradient>
<radialGradient id="paint6_radial_495_12479" cx="0" cy="0" r="1" gradientUnits="userSpaceOnUse" gradientTransform="translate(1882.24 -8479.18) scale(969.986 877.598)">
<stop stop-color="#2AC4F3"/>
<stop offset="0.332" stop-color="#2AC4F3"/>
<stop offset="1" stop-color="#0095DA"/>
</radialGradient>
<radialGradient id="paint7_radial_495_12479" cx="0" cy="0" r="1" gradientUnits="userSpaceOnUse" gradientTransform="translate(775.827 -11973.6) scale(1358.36 1228.98)">
<stop stop-color="#2AC4F3"/>
<stop offset="0.332" stop-color="#2AC4F3"/>
<stop offset="1" stop-color="#0095DA"/>
</radialGradient>
<radialGradient id="paint8_radial_495_12479" cx="0" cy="0" r="1" gradientUnits="userSpaceOnUse" gradientTransform="translate(663.284 -7730.7) scale(926.866 838.585)">
<stop stop-color="#2AC4F3"/>
<stop offset="0.332" stop-color="#2AC4F3"/>
<stop offset="1" stop-color="#0095DA"/>
</radialGradient>
<radialGradient id="paint9_radial_495_12479" cx="0" cy="0" r="1" gradientUnits="userSpaceOnUse" gradientTransform="translate(1813.94 -7052.32) scale(862.393 780.253)">
<stop stop-color="#2AC4F3"/>
<stop offset="0.332" stop-color="#2AC4F3"/>
<stop offset="1" stop-color="#0095DA"/>
</radialGradient>
</defs>
</svg>
